<svg
fill="#ffff"
width="52"
height="52"
viewBox="0 0 64 64"
xmlns="http://www.w3.org/2000/svg">
<path d="M40.4992 6.8L43.0992 2C43.1992 1.7 43.1992 1.4 42.9992 1.3C42.7992 1 42.6992 1 42.6992 1C42.5992 1 42.2992 1.1 42.2992 1.3L39.5992 6.2C37.2992 5.2 34.7992 4.7 32.2992 4.7C29.5992 4.7 27.1992 5.3 24.9992 6.2L22.2992 1.3C22.1992 1 21.8992 0.9 21.5992 1.2C21.2992 1.3 21.1992 1.6 21.4992 1.9L24.1992 6.7C18.5992 9.5 15.1992 14.6 15.1992 20.5H49.3992C49.1992 14.5 45.4992 9.5 40.4992 6.8ZM24.0992 14.3C23.3992 14.3 22.6992 13.6 22.6992 12.9C22.6992 12.2 23.3992 11.5 24.0992 11.5C24.7992 11.5 25.4992 12.2 25.4992 12.9C25.4992 13.6 24.9992 14.3 24.0992 14.3ZM39.8992 14.3C39.1992 14.3 38.4992 13.6 38.4992 12.9C38.4992 12.2 39.1992 11.5 39.8992 11.5C40.5992 11.5 41.2992 12.2 41.2992 12.9C41.2992 13.6 40.6992 14.3 39.8992 14.3Z"/>
</svg>